# xmcd CD database file
#
# Track frame offsets:
#	182
#	12267
#	25372
#	39380
#	52225
#	67357
#	78932
#	90645
#	103710
#	119022
#	148140
#	165005
#	177757
#	187862
#	204335
#	221847
#	235787
#
# Disc length: 3416 seconds
#
# Revision: 10
# Processed by: cddbd v1.5.2PL0 Copyright (c) Steve Scherf et al.
# Submitted via: CDex 1.51
#
DISCID=eb0d5611
DTITLE=Ray Charles - Ultimate Hits Collection [1 of 2]
DYEAR=1999
DGENRE=R&B
TTITLE0=Mess Around
TTITLE1=I've Got a Woman
TTITLE2=A Fool for You
TTITLE3=Greenbacks
TTITLE4=Drown in My Own Tears
TTITLE5=Hallelujah I Love Her So
TTITLE6=Lonely Avenue
TTITLE7=Ain't That Love
TTITLE8=(Night Time Is) The Right Time
TTITLE9=What'd I Say Parts I and II
TTITLE10=Don't Let the Sun Catch You Cryin'
TTITLE11=Them That Got
TTITLE12=Sticks and Stones
TTITLE13=Georgia on My Mind
TTITLE14=Ruby
TTITLE15=One Mint Julep
TTITLE16=I've Got News for You
EXTD=YEAR: 1999
EXTT0=
EXTT1=
EXTT2=
EXTT3=
EXTT4=
EXTT5=
EXTT6=
EXTT7=
EXTT8=
EXTT9=
EXTT10=
EXTT11=
EXTT12=
EXTT13=
EXTT14=
EXTT15=
EXTT16=
PLAYORDER=
